<svg id="Capa_1" data-name="Capa 1" xmlns="http://www.w3.org/2000/svg" viewBox="0 0 363.75 325.18"><defs><style>.cls-1{fill:#1d1d1b;}.cls-2{fill:#fff;}.cls-3{fill:#fce92a;}</style></defs><path class="cls-1" d="M215.12,118.59l-11.3,24.7-79.41-1L135,151.41l-16.24,33.18,65.65.7-10.94,25.42-78.36-.79a16.12,16.12,0,0,1-13.91-24l38.62-69.11Z"/><polygon class="cls-1" points="267.71 129.53 193.59 208.94 234.88 208.94 231 196.59 292.41 198 291 209.29 328.06 210 313.94 116.12 269.12 116.47 267.71 129.53"/><polygon class="cls-2" points="284.29 150.71 261 176.47 289.24 176.47 284.29 150.71"/><polygon class="cls-3" points="265.59 70.41 258.24 93.53 280.76 94.94 265.59 70.41"/><path class="cls-3" d="M226.76,61.06V41l25.65,19.09-2.47,29.29s-61.76-48.7-129.88-14.82c0,0-49.06,20.82-59.3,74.82,0,0-10.94,49.77,12.71,79.41,0,0,46,75.06,142.94,40.24,0,0,26.59-10.71,41.65-38.82l89.65-2.48-.36,13.42L271.47,244S191.71,360.82,71,273.65l24.12-16L82.41,247.41,57.68,260.65,37.91,237l29.33-5.12-7.77-12-27.56,1.94S9,196.94,25.59,123.53l30.35,15.53,3.88-10.35L28.41,111.88s18.18-51.7,68.47-72L115,73.06l12.47-5.88L113.12,34.24s40.94-18.36,96.32.88l-2.09,26.64,19.41,7.48Z"/></svg>